<?xml version="1.0" encoding="utf-8"?>
<!-- Generator: Adobe Illustrator 18.0.0, SVG Export Plug-In . SVG Version: 6.00 Build 0)  -->
<!DOCTYPE svg PUBLIC "-//W3C//DTD SVG 1.1//EN" "http://www.w3.org/Graphics/SVG/1.1/DTD/svg11.dtd">
<svg version="1.1" id="Layer_1" xmlns="http://www.w3.org/2000/svg" xmlns:xlink="http://www.w3.org/1999/xlink" x="0px" y="0px"
	 viewBox="0 0 51.4 60" enable-background="new 0 0 51.4 60" xml:space="preserve">
<g>
	<path fill="#FFFFFF" d="M48.6,6l-2.4-0.8l-0.8-2.4C44.8,1.1,43.3,0,41.5,0H25.7H9.8C8.7,0,7.7,0.4,7,1.2c-0.4,0.4-0.8,1-1,1.6
		L5.2,5.2L2.8,6C2.2,6.2,1.6,6.5,1.2,7C0.4,7.7,0,8.7,0,9.8v5.8c0,2.3,1.8,4.1,4.1,4.1l0.4,0l4.2,36.7c0.2,2.1,2,3.6,4,3.6h13h13
		c1.1,0,2.1-0.5,2.9-1.2c0.6-0.6,1.1-1.5,1.2-2.4l4.2-36.7l0.4,0c1.1,0,2.1-0.5,2.9-1.2c0.7-0.7,1.2-1.8,1.2-2.9V9.8
		C51.4,8.1,50.2,6.5,48.6,6z M38.6,55.9h-13h-13l-1.2-10.5h14.2h14.2L38.6,55.9z M41.7,29c-0.1,0-0.1,0-0.2,0H25.7H9.8
		c-0.1,0-0.1,0-0.2,0L8.4,18.5h17.3H43L41.7,29z M47.3,15.6H25.7H4.1V9.8l4.3-1.4l1.4-4.3h15.8h15.8L43,8.4l4.3,1.4V15.6z"/>
	<path opacity="0.1" fill="#3A3A34" d="M25.7,60h13c1.1,0,2.1-0.5,2.9-1.2c0.6-0.6,1.1-1.5,1.2-2.4l4.2-36.7l0.4,0
		c1.1,0,2.1-0.5,2.9-1.2c0.7-0.7,1.2-1.8,1.2-2.9V9.8c0-1.8-1.1-3.3-2.8-3.9l-2.4-0.8l-0.8-2.4C44.8,1.1,43.3,0,41.5,0H25.7v4.1
		h15.8L43,8.4l4.3,1.4v5.8H25.7l0,2.9H43L41.7,29c-0.1,0-0.1,0-0.2,0H25.7v16.4h14.2l-1.2,10.5h-13V60z"/>
</g>
</svg>
