<?xml version="1.0" encoding="utf-8"?>
<!-- Generator: Adobe Illustrator 18.0.0, SVG Export Plug-In . SVG Version: 6.00 Build 0)  -->
<!DOCTYPE svg PUBLIC "-//W3C//DTD SVG 1.1//EN" "http://www.w3.org/Graphics/SVG/1.1/DTD/svg11.dtd">
<svg version="1.1" id="Layer_1" xmlns="http://www.w3.org/2000/svg" xmlns:xlink="http://www.w3.org/1999/xlink" x="0px" y="0px"
	 viewBox="0 0 48.8 64" enable-background="new 0 0 48.8 64" xml:space="preserve">
<g>
	<ellipse opacity="0.3" fill="#3A3A34" cx="24.4" cy="61" rx="21.3" ry="3"/>
	<path fill="#FFFFFF" d="M24.4,0C10.9,0,0,10.9,0,24.4C0,42.7,24.4,61,24.4,61s24.4-18.3,24.4-36.6C48.8,10.9,37.8,0,24.4,0z
		 M24.4,36.6c-6.7,0-12.2-5.5-12.2-12.2s5.5-12.2,12.2-12.2c6.7,0,12.2,5.5,12.2,12.2S31.1,36.6,24.4,36.6z"/>
	<path opacity="0.1" fill="#3A3A34" d="M24.4,0v12.2c6.7,0,12.2,5.5,12.2,12.2s-5.5,12.2-12.2,12.2V61c0,0,24.4-18.3,24.4-36.6
		C48.8,10.9,37.8,0,24.4,0z"/>
</g>
</svg>
