<?xml version="1.0" encoding="utf-8"?>
<!-- Generator: Adobe Illustrator 18.0.0, SVG Export Plug-In . SVG Version: 6.00 Build 0)  -->
<!DOCTYPE svg PUBLIC "-//W3C//DTD SVG 1.1//EN" "http://www.w3.org/Graphics/SVG/1.1/DTD/svg11.dtd">
<svg version="1.1" id="Layer_1" xmlns="http://www.w3.org/2000/svg" xmlns:xlink="http://www.w3.org/1999/xlink" x="0px" y="0px"
	 viewBox="0 0 20 32" enable-background="new 0 0 20 32" xml:space="preserve">
<g>
	<path fill="#FFFFFF" d="M16.7,0H3.3C1.5,0,0,1.5,0,3.3v25.3C0,30.5,1.5,32,3.3,32h13.3c1.8,0,3.3-1.5,3.3-3.3V3.3
		C20,1.5,18.5,0,16.7,0z M3,8h14v12H3V8z M3,3.3C3,3,3,3,3.3,3h13.3C17,3,17,3,17,3.3V5H3V3.3z M16.7,29H3.3C3,29,3,29,3,28.7V23h14
		v5.7C17,29,17,29,16.7,29z"/>
	<circle fill="#FFFFFF" cx="10" cy="26" r="2"/>
</g>
</svg>
