<?xml version="1.0" encoding="utf-8"?>
<!-- Generator: Adobe Illustrator 18.0.0, SVG Export Plug-In . SVG Version: 6.00 Build 0)  -->
<!DOCTYPE svg PUBLIC "-//W3C//DTD SVG 1.1//EN" "http://www.w3.org/Graphics/SVG/1.1/DTD/svg11.dtd">
<svg version="1.1" id="Layer_1" xmlns="http://www.w3.org/2000/svg" xmlns:xlink="http://www.w3.org/1999/xlink" x="0px" y="0px"
	 viewBox="0 0 42.7 63.6" enable-background="new 0 0 42.7 63.6" xml:space="preserve">
<g>
	<ellipse opacity="0.3" fill="#3A3A34" cx="21.3" cy="60.5" rx="21.3" ry="3"/>
	<g>
		<path fill="#FFFFFF" d="M21.3,48.7C21.3,48.7,21.3,48.7,21.3,48.7C21.3,48.7,21.3,48.7,21.3,48.7c-1.6,0-2.9,1.3-2.9,2.9
			c0,1.6,1.3,2.9,2.9,2.9c1.6,0,2.9-1.3,2.9-2.9C24.2,49.9,22.9,48.7,21.3,48.7z"/>
		<rect x="15.6" y="7.6" fill="#FFFFFF" width="11.4" height="1.9"/>
		<rect x="8" y="13.4" fill="#FFFFFF" width="26.7" height="32.4"/>
		<path fill="#FFFFFF" d="M33.5,0H9.1C4.3,0,0.3,3.9,0.3,8.8v43.5c0,4.8,3.9,8.8,8.8,8.8h24.4c4.8,0,8.8-3.9,8.8-8.8V8.8
			C42.3,3.9,38.4,0,33.5,0z M38.5,52.3c0,2.7-2.2,5-5,5H9.1c-2.7,0-5-2.2-5-5V8.8c0-2.7,2.2-5,5-5h24.4c2.7,0,5,2.2,5,5V52.3z"/>
	</g>
	<g opacity="0.1">
		<path fill="#3A3A34" d="M21.3,54.4c1.6,0,2.9-1.3,2.9-2.9c0-1.6-1.3-2.9-2.9-2.9c0,0,0,0,0,0c0,0,0,0,0,0L21.3,54.4z"/>
		<rect x="21.3" y="7.6" fill="#3A3A34" width="5.7" height="1.9"/>
		<rect x="21.3" y="13.4" fill="#3A3A34" width="13.4" height="32.4"/>
		<path fill="#3A3A34" d="M21.3,61.1h12.2c4.8,0,8.8-3.9,8.8-8.8V8.8c0-4.8-3.9-8.8-8.8-8.8H21.3v3.8h12.2c2.7,0,5,2.2,5,5v43.5
			c0,2.7-2.2,5-5,5H21.3L21.3,61.1z"/>
	</g>
</g>
</svg>
