<?xml version="1.0" encoding="utf-8"?>
<!-- Generator: Adobe Illustrator 18.0.0, SVG Export Plug-In . SVG Version: 6.00 Build 0)  -->
<!DOCTYPE svg PUBLIC "-//W3C//DTD SVG 1.1//EN" "http://www.w3.org/Graphics/SVG/1.1/DTD/svg11.dtd">
<svg version="1.1" id="Layer_1" xmlns="http://www.w3.org/2000/svg" xmlns:xlink="http://www.w3.org/1999/xlink" x="0px" y="0px"
	 viewBox="0 0 172.3 48" enable-background="new 0 0 172.3 48" xml:space="preserve">
<g>
	<path fill-rule="evenodd" clip-rule="evenodd" fill="#3E1850" d="M6.4,28.6c0,0-3.2-3.6-2.2-9.3c1-5.7,6.3-11.4,12.5-13.9
		c6.2-2.5,12.8-3.2,16.6-3.9C37,0.9,43.9,3,44.5,10.7l5-0.6c0,0,0.8-4.6,6-5.3c5.2-0.7,6,3.5,5.7,4.2c0,0,9.3-1,11.1-1.1
		c1.8-0.2,2.5,0.2,2.8,0.6c0,0,2.9-1.2,5,0c0,0,1.7-3.3,5.6-3.9c3.9-0.6,5,2,5,2s2.8-5.1,9.1-5.6c4.2-0.3,5.1,2.9,5.1,2.9
		s4.2-4.5,8.4-3.9c4.2,0.6,3.8,3.3,3.5,4.2c-0.3,0.9-1.3,2.7-1.3,2.7s3.2-1.7,7.3-2.8c4.1-1.1,8.2-1.8,10.2-2c2-0.2,3.3,1.3,3.5,2.8
		c0,0,1.9-3.9,5.2-4.2s5.7,1.2,6.4,3c0.7,1.8-0.3,3.7-0.3,3.7l4.2-0.6c0,0,1.6-3.7,4.3-4.8c2.7-1.2,7.3-1.2,8.2,3.3
		c0,0,1.7-0.4,4.1,0.2c2.3,0.6,2.8,4,2.4,5.9c-0.4,1.9-3.2,4.6-5,4.7c-1.8,0.1-6.3,0.2-6.3,0.2l-5.3,11.8c0,0,1.5-1.1,3.7-0.4
		c2.2,0.6,2.5,4,1.2,6.2c-1.3,2.2-6.3,3-9.4,2.9c-3.1-0.1-5.2-2.3-5.8-3.2c0,0-1.7,2.3-5.2,3.1c-3.5,0.7-5.3-0.2-6.2-1.1
		c0,0-1.6,4.1-5.5,4.4c-3.9,0.3-4.9-2.7-5-4.8c0,0-1.4,3.5-4.7,4.3c-3.3,0.8-4.5,0.7-6.4-0.1c0,0-3.9,4.4-10,2.4
		c-6.1-2-5.1-5.9-5.3-8.1c0,0-2.1,3.6-5.4,4.6c-3.3,0.9-4.8-0.4-5.4-2.1c0,0-5.5,8.2-14.8,8.6c-9.3,0.4-12.5-2.1-12.1-8.3
		c0,0-4.3,1.7-7.6-1.1c0,0-3.3,2.5-6.3,0.1c0,0,0.4,1.6-1.1,3.7c-1.6,2.1-5,4.5-10.8,3.8c-5.9-0.6-9.3-7.7-9.9-10.5
		c0,0-5.2,10.4-10.3,13.7C7,49.5,3.4,48,0.8,44.4C-1.9,40.8,3.1,31.9,6.4,28.6z"/>
	<g>
		<path fill-rule="evenodd" clip-rule="evenodd" fill="#FFFFFF" d="M39.5,34.6c-5.4,4.1-6.7-0.9-8.2-4.2c-1.6-3.3-3.7-8.6-3.7-8.6
			c4.6-2.2,12.2-7.1,12.8-12.2c0.6-5.1-4.6-7-7.3-6.5c-2.7,0.5-7.8,1.3-13,2.7c-5.2,1.4-11.9,6.8-13,12C6,23,7.4,25.2,11.2,25.1
			c3.8-0.2,3.1-3.4,3.1-3.4c-5.8-0.7-3-7.1-0.3-10.1c2.7-3,6.2-4.1,7.1-4c1,0,1.6,0.5,1.6,1.1c0,0.5-0.2,1.2-0.9,2.8
			c-0.6,1.6-1.9,4.9-2.7,6.8c-0.8,1.9-2,4.3-2,4.3s-1.1,0.9-3.3,2.1C9.4,26.9,1.3,35.6,2.9,41c1.2,4.1,7.2,2.4,11.6-4.3
			c3.2-4.8,7.6-13.4,7.6-13.4c0.5,0.6,0.9,1.4,2.4,5.3c1.5,3.9,3.5,9.1,8.5,9.7c3.8,0.4,6.7-2.6,7.1-2.9
			C40.5,35,40.2,34.1,39.5,34.6z M6.7,39.2C3.3,38.9,8.7,28.1,16,25.8C16,25.8,9.9,39.3,6.7,39.2z M23.4,21c0,0,4.3-9.3,5.5-12
			c1.2-2.7,4.4-1.4,5.3,0c0.9,1.4,0.1,5.8-1.4,7.4C31.3,18.1,28,20.2,23.4,21z"/>
		<path fill-rule="evenodd" clip-rule="evenodd" fill="#FFFFFF" d="M106.7,35c-2.5,0-4.3,0.1-3.9-6.4c0.4-6.4,9.9-26.8,9.9-26.8
			c-1.8-0.1-4,0.3-5.9,2.7c-1.9,2.4-4.6,6.4-7.8,11.1c-3.2,4.8-5.6,8.1-5.6,8.1c1.1-8.4,7.6-20.8,7.6-20.8c-3.8-0.2-6,0.9-8.3,4.5
			c-2.6,4-10.4,20.8-15.4,25.2c-3.7,3.2-8.1,3.3-10,2.9c-1.9-0.4-2.2-2.6-2.2-2.6c-0.8-0.5-3.6-0.8-4,1.2c-0.3,2-0.4,3,0.9,4.6
			c2,2.3,13.4,1.7,18.3-4.8c4.9-6.4,10.4-18.2,10.4-18.2c-1.5,3.6-3.3,15.2-3.4,16.7c-0.1,1.5,2,1.6,3.8-0.7
			c1.8-2.4,10.1-13.9,10.1-13.9c-0.9,2.8-3.3,12.8-2.5,16.6c0.8,3.8,6.5,2.8,7.7,2.1C107.7,35.9,108,35,106.7,35z"/>
		<path fill-rule="evenodd" clip-rule="evenodd" fill="#FFFFFF" d="M113.6,29.7c0.6-0.7,1.1-1.6,0.7-1.9c-0.4-0.2-0.3,0.1-1,0.3
			c-5.3,2-3.7-2.8-3.7-2.8s3.6,0.1,5.3-1.4c4.8-3.8,4.7-8,1.8-8.8c-2.9-0.8-8.7,2.5-10.5,7.5c-1.8,5-1.3,7.6,1.2,8.8
			C110,32.6,112.9,30.5,113.6,29.7z M113.2,18.7c1.7-1.6,2.7-1.4,2.4,0c-0.2,1.4-1.7,3.7-2.7,4.5c-1,0.8-1.6,0.8-2.8,0.7
			C110.1,24,111.5,20.3,113.2,18.7z"/>
		<path fill-rule="evenodd" clip-rule="evenodd" fill="#FFFFFF" d="M143.6,5.1c0.8-1.3,0.9-2.5-1.2-2.4c-2.1,0-2.7,0.5-4.3,3.4
			c-1.6,3-6.7,12.9-8.7,18.6c0,0,0-6.7,1.4-12.9c1.3-6.2,2.6-8.1,1-7.9c-1.6,0.2-8.7,1.2-12.5,2.8c-3.8,1.6-5.9,4.4-4,5.7
			c2,1.7,6.4,0.8,5.1-1.4c0,0-2.9,1-2.3-1.3c0.6-2.3,5.8-2.5,6.4-2.4c0.6,0.1,1.2,0.8,0.9,1.6s-9.2,19.6-11.6,23.4
			c-1.6,2.5-1.4,3.2,1.2,2.7c2.6-0.5,2.9-1.2,3.6-2.9c0.6-1.7,4.7-13.1,6.8-16.9c0,0-0.8,10-0.5,14.3c0.3,4.3-0.1,6.1,1.7,5.6
			c1.8-0.5,1.8-1.3,2.1-1.9c0.3-0.6,1.2-3.1,5.6-12C138.5,12.4,142.8,6.4,143.6,5.1z"/>
		<path fill-rule="evenodd" clip-rule="evenodd" fill="#FFFFFF" d="M165.8,6.9c-1.6,0.1-7.1,0.7-7.1,0.7c0.9-1.9,1.7-2.6,1.7-3.5
			c0-0.9-0.8-1.3-3-0.7c-2.2,0.5-3.9,4.9-3.9,4.9s-10.4,1.6-11.1,1.7c-0.7,0.1-0.9,1.5-0.1,1.6c1.3,0,9.9,0,9.9,0l-4.6,11.1
			c-1.1,0.5-1.9-0.4-1.9-0.4c0.5-1,1.3-5.5-0.5-6.5c-1.8-1-3.5,0.8-3.5,0.8c-1.7,0.2-4.4,2.3-6.4,5.1c-2,2.9-2.7,6.3-1.6,8.7
			c1.1,2.4,4.5,1.9,7.2-0.7c2.7-2.6,4.1-6,4.1-6c1,0.5,2.1,0.3,2.1,0.3s-2.3,4.5-0.3,6.6c2.7,2.8,6.7,1,7.5,0.7
			c0.8-0.3,1.7-0.7,1.8-1.5c0.1-0.8-0.4-0.5-1-0.3c-3.8,1.2-5.4-1.5-4.2-4.8c1.2-3.3,6-13.4,6-13.4s6.1-0.2,7.6-0.3
			c1.5-0.1,1.9-0.8,2.7-1.8C167.8,8.3,167.4,6.7,165.8,6.9z M139.9,28.5c-1.9,1-2.6,0.6-2.8-1.8c-0.2-2.4,2.1-5.8,4.1-7.1
			c0,0-0.6,3,2.4,3.8C143.6,23.3,141.8,27.5,139.9,28.5z"/>
		<path fill-rule="evenodd" clip-rule="evenodd" fill="#FFFFFF" d="M61.5,31.4c2.4,0,5.6-4.7,5.6-4.7c-0.3,2.2-0.1,4.5,1.8,4.5
			c1.9,0,5.4-4.5,5.4-4.5c-0.3,3.1,1.2,4.4,2.9,4.2c1.7-0.2,1.8-2.5,1.8-2.5c-1.2-0.5-1-2.4,0.6-4.5c1.6-2,4.3-6.9,5.2-8.6
			c0.9-1.8,3.9-8.3,2-9.1c-1.9-0.8-4.4,1.4-7.6,7.6C76,19.9,75,23.9,75,23.9c-4.1,5-3.7,3.5-3.7,2.1c0-1.4,4.6-9.7,4.6-9.7
			c-1.9-0.6-3.3-0.5-3.9,0.7c-0.7,1.1-2.6,4.5-3.1,5.4c-0.5,0.9-1.2,2-2.7,3.9c-1.6,1.9-2.1,1.3-1.9-0.3c0.4-3,4.1-9.9,4.1-9.9
			c-3.3-1.5-4.5,1.1-4.5,1.1c-3.4-1.8-7.8,2.1-9,3.9c-1.2,1.8-2.5,3.8-4.5,5.5c-2,1.7-1.6-0.6-0.8-2.7c0.5-1.4,4.4-10.1,4.4-10.1
			l15.4-0.2c3.6-0.6,3-3.9,3-3.9l-17.3,1.7l2.1-4.5c-2.1-0.9-4.2,0.5-4.5,1.1c-0.3,0.7-1.6,3.5-1.6,3.5s-8.9,1.2-9.7,1.3
			c-0.8,0.1-1.9,1.2-0.7,1.2c5.9-0.3,9.4-0.3,9.4-0.3s-3.4,7.7-4,8.9c-0.6,1.3-4.9,6.3-7.9,6.1c-2.9-0.2-1.7-3.4-1.7-3.4
			c2.4-0.1,5.2-0.5,7.5-3.5c2.4-3,2.3-6.9-1.3-6.9c-3.6,0-8.2,3.7-9.9,8.4c-1.8,4.7-0.7,8.5,3.1,8.5c3.8,0,9.1-6,9.1-6
			c-0.4,0.9-0.7,5.5,1.5,5.5c2.2,0,5.5-4.4,5.5-4.4s-1.5,5,2.1,5c3.6,0,6-3.1,6-3.1S60.1,31.5,61.5,31.4z M84.4,10.9
			c0.9-1.2,1.3-0.4,0.2,2.2c-1.2,2.6-2.8,6-5.3,9.3C79.3,22.4,81.1,15.8,84.4,10.9z M38.3,20.9c0.8-1.2,2-2.6,2.8-3.1
			c0.8-0.5,1.7-0.3,1.4,1.1c-0.3,1.4-1.9,3.7-2.8,4.4c-0.9,0.7-1.8,0.8-2.7,0.6C37,24,37.5,22.2,38.3,20.9z M60.1,26.9
			c-2.8,2.6-4.1,2.1-4,0.1c0.1-2.1,2.2-5.9,3.9-7.7c1.7-1.8,3.1-1,3.1-1C60.6,22.9,60.1,26.9,60.1,26.9z"/>
		<path fill-rule="evenodd" clip-rule="evenodd" fill="#FFFFFF" d="M74.2,14.9c1.5,0,2.5-1.2,3.2-2c0.7-0.8,1.5-2.9-0.2-3.3
			c-1.6-0.3-3,1.5-3.6,2.3C72.9,12.9,72.6,14.9,74.2,14.9z"/>
	</g>
	<g>
		<path fill="#3E1850" d="M171.7,5c-0.4,0.4-0.8,0.6-1.4,0.6c-0.5,0-1-0.2-1.4-0.6c-0.4-0.4-0.6-0.8-0.6-1.4c0-0.5,0.2-1,0.6-1.4
			c0.4-0.4,0.8-0.6,1.4-0.6c0.5,0,1,0.2,1.4,0.6c0.4,0.4,0.6,0.8,0.6,1.4C172.3,4.2,172.1,4.7,171.7,5z M169.2,2.5
			c-0.3,0.3-0.5,0.7-0.5,1.2c0,0.5,0.2,0.9,0.5,1.2c0.3,0.3,0.7,0.5,1.2,0.5c0.5,0,0.8-0.2,1.2-0.5c0.3-0.3,0.5-0.7,0.5-1.2
			c0-0.5-0.2-0.8-0.5-1.2c-0.3-0.3-0.7-0.5-1.2-0.5S169.5,2.2,169.2,2.5z M170.3,2.6c0.3,0,0.5,0,0.6,0.1c0.2,0.1,0.3,0.3,0.3,0.5
			c0,0.2-0.1,0.3-0.2,0.4c-0.1,0-0.2,0.1-0.3,0.1c0.2,0,0.3,0.1,0.4,0.2c0.1,0.1,0.1,0.2,0.1,0.3v0.2c0,0,0,0.1,0,0.2
			c0,0.1,0,0.1,0,0.1l0,0h-0.3c0,0,0,0,0,0c0,0,0,0,0,0l0-0.1V4.4c0-0.2-0.1-0.4-0.2-0.5c-0.1,0-0.2-0.1-0.4-0.1H170v0.8h-0.4V2.6
			H170.3z M170.7,2.9c-0.1-0.1-0.2-0.1-0.5-0.1H170v0.8h0.3c0.2,0,0.3,0,0.4,0c0.1-0.1,0.2-0.2,0.2-0.3C170.9,3.1,170.8,3,170.7,2.9
			z"/>
	</g>
</g>
</svg>
