<?xml version="1.0" encoding="utf-8"?>
<!-- Generator: Adobe Illustrator 18.0.0, SVG Export Plug-In . SVG Version: 6.00 Build 0)  -->
<!DOCTYPE svg PUBLIC "-//W3C//DTD SVG 1.1//EN" "http://www.w3.org/Graphics/SVG/1.1/DTD/svg11.dtd">
<svg version="1.1" id="Layer_1" xmlns="http://www.w3.org/2000/svg" xmlns:xlink="http://www.w3.org/1999/xlink" x="0px" y="0px"
	 viewBox="0 0 32 32" enable-background="new 0 0 32 32" xml:space="preserve">
<path fill="#FFFFFF" d="M0,11.3c0,6.2,5.1,11.3,11.3,11.3c1.5,0,2.9-0.3,4.2-0.8l8.8,8.8c0.8,0.8,1.9,1.3,3.1,1.3s2.3-0.5,3.2-1.3
	c0.8-0.8,1.3-1.9,1.3-3.1c0-1.2-0.5-2.3-1.3-3.1l-8.8-8.8c0.5-1.3,0.8-2.7,0.8-4.2C22.7,5.1,17.6,0,11.3,0C5.1,0,0,5.1,0,11.3z
	 M18,20.4c0.9-0.7,1.7-1.5,2.4-2.4c0,0,0,0,0-0.1l8.3,8.3c0.3,0.3,0.5,0.8,0.5,1.3c0,0.5-0.2,0.9-0.5,1.3c-0.7,0.7-1.9,0.7-2.5,0
	L18,20.4C18,20.5,18,20.5,18,20.4z M2.7,11.3c0-4.8,3.9-8.7,8.7-8.7S20,6.6,20,11.3c0,1.2-0.2,2.3-0.7,3.4L19,15.2
	c-0.2,0.4-0.4,0.8-0.7,1.2c0,0,0,0,0,0c-0.5,0.7-1.2,1.4-1.9,1.9c0,0,0,0,0,0c-0.4,0.3-0.8,0.5-1.2,0.7l-0.6,0.3
	c-1,0.4-2.2,0.7-3.4,0.7C6.6,20,2.7,16.1,2.7,11.3z"/>
</svg>
