<?xml version="1.0" encoding="utf-8"?>
<!-- Generator: Adobe Illustrator 18.0.0, SVG Export Plug-In . SVG Version: 6.00 Build 0)  -->
<!DOCTYPE svg PUBLIC "-//W3C//DTD SVG 1.1//EN" "http://www.w3.org/Graphics/SVG/1.1/DTD/svg11.dtd">
<svg version="1.1" id="Layer_1" xmlns="http://www.w3.org/2000/svg" xmlns:xlink="http://www.w3.org/1999/xlink" x="0px" y="0px"
	 viewBox="0 0 64 64" enable-background="new 0 0 64 64" xml:space="preserve">
<g>
	<path fill="#E8474B" d="M30,31.4V22c0-1.1-0.9-2-2-2c-1.1,0-2,0.9-2,2v9.4c-1.2,0.5-2.1,1.4-2.6,2.6H16c-1.1,0-2,0.9-2,2s0.9,2,2,2
		h7.4c0.8,1.8,2.5,3,4.6,3c2.8,0,5-2.2,5-5C33,34,31.8,32.2,30,31.4z"/>
	<path fill="#E8474B" d="M28,15.4c-5.5,0-10.7,2.1-14.5,6c-8,8-8,21.1,0,29.1c3.9,3.9,9.1,6,14.5,6c5.5,0,10.7-2.1,14.6-6
		c3.9-3.9,6-9,6-14.5c0-5.5-2.1-10.7-6-14.5C38.7,17.6,33.5,15.4,28,15.4z M41.1,49.1c-3.5,3.5-8.2,5.4-13.1,5.4
		c-5,0-9.6-1.9-13.1-5.4C11.4,45.6,9.4,41,9.4,36s1.9-9.6,5.4-13.1c3.5-3.5,8.2-5.4,13.1-5.4c5,0,9.6,1.9,13.1,5.4
		c3.5,3.5,5.4,8.2,5.4,13.1C46.6,41,44.6,45.6,41.1,49.1z"/>
	<path fill="#E8474B" d="M62.8,13.9L50.1,1.2C49.3,0.4,48.3,0,47.3,0c-1,0-2,0.4-2.8,1.2l-4.2,4.2c-1.4,1.4-1.5,3.7-0.3,5.3
		C36.3,9,32.3,8,28,8C12.6,8,0,20.6,0,36s12.6,28,28,28c15.4,0,28-12.6,28-28c0-4.3-1-8.3-2.7-11.9c0.7,0.6,1.6,0.9,2.4,0.9
		c1,0,2-0.4,2.8-1.2l4.2-4.2c0.8-0.8,1.2-1.8,1.2-2.8C64,15.7,63.6,14.6,62.8,13.9z M55.8,21l-5-4.9l-4.5,4.5
		C49.9,24.7,52,30.1,52,36c0,13.3-10.7,24-24,24S4,49.3,4,36c0-13.3,10.7-24,24-24c5.9,0,11.3,2.1,15.5,5.7l4.5-4.5l0,0v0l-4.9-5
		L47.3,4L60,16.7L55.8,21z"/>
</g>
</svg>
